<mxfile host="app.diagrams.net" agent="Mozilla/5.0 (X11; Linux x86_64; rv:128.0) Gecko/20100101 Firefox/128.0" version="26.0.11">
  <diagram name="第 1 页" id="niMM-9kmuj21ZgBBaGZ3">
    <mxGraphModel dx="1234" dy="411" grid="1" gridSize="10" guides="1" tooltips="1" connect="1" arrows="1" fold="1" page="1" pageScale="1" pageWidth="827" pageHeight="1169" math="0" shadow="0">
      <root>
        <mxCell id="0" />
        <mxCell id="1" parent="0" />
        <mxCell id="oXmqE3pTat4qHiT9koIU-1" value="" style="rounded=1;whiteSpace=wrap;html=1;fillColor=none;" parent="1" vertex="1">
          <mxGeometry x="113" y="367" width="120" height="180" as="geometry" />
        </mxCell>
        <mxCell id="oXmqE3pTat4qHiT9koIU-2" value="" style="shape=image;imageAspect=0;aspect=fixed;verticalLabelPosition=bottom;verticalAlign=top;image=data:image/svg+xml,PHN2ZyB4bWxucz0iaHR0cDovL3d3dy53My5vcmcvMjAwMC9zdmciIHZpZXdCb3g9IjAgMCA2NCA2NCI+PGcgZGF0YS1uYW1lPSJMYXllciAxNSIgaWQ9IkxheWVyXzE1Ij48cGF0aCBkPSJNNTksMTZIMTJWMTNhMSwxLDAsMCwwLTEtMUg1YTEsMSwwLDAsMCwwLDJoNXY0SDdhMSwxLDAsMCwwLTEsMXY4YTEsMSwwLDAsMCwxLDFoM3YySDdhMSwxLDAsMCwwLTEsMXY4YTEsMSwwLDAsMCwxLDFoM3Y3YTEsMSwwLDAsMCwyLDBWNDJoNXYzYTEsMSwwLDAsMCwxLDFoOGExLDEsMCwwLDAsMS0xVjQyaDJ2M2ExLDEsMCwwLDAsMSwxSDQ2YTEsMSwwLDAsMCwxLTFWNDJINTlhMSwxLDAsMCwwLDEtMVYxN0ExLDEsMCwwLDAsNTksMTZaTTgsMjZWMjBoMnY2Wk04LDM4VjMyaDJ2NlptNCwxVjE4aDJWNDBIMTJabTcsM2gydjJIMTlabTYsMkgyM1Y0MmgyWm02LTJoMnYySDMxWm00LDBoMnYySDM1Wm00LDBoMnYySDM5Wm02LDJINDNWNDJoMlptMTMtNEgxNlYxOEg1OFoiLz48cGF0aCBkPSJNMjcsMzhhOC45MSw4LjkxLDAsMCwwLDUuNjQtMmg4LjcyQTguOTEsOC45MSwwLDAsMCw0NywzOGE5LDksMCwwLDAsMC0xOCw4LjkxLDguOTEsMCwwLDAtNS42NCwySDMyLjY0QTguOTEsOC45MSwwLDAsMCwyNywyMGE5LDksMCwwLDAsMCwxOFpNMzguMDYsMjhIMzUuOTRhOSw5LDAsMCwwLTEuNDYtNGg1QTksOSwwLDAsMCwzOC4wNiwyOFptLTIuMTIsMmgyLjEyYTksOSwwLDAsMCwxLjQ2LDRoLTVBOSw5LDAsMCwwLDM1Ljk0LDMwWk01NCwyOWE3LDcsMCwxLDEtNy03QTcsNywwLDAsMSw1NCwyOVpNMjcsMjJhNyw3LDAsMSwxLTcsN0E3LDcsMCwwLDEsMjcsMjJaIi8+PHBhdGggZD0iTTI0LjMsMzAuMjlsLTEuNTUsMS41NGExLDEsMCwwLDAsMCwxLjQyQTYsNiwwLDAsMCwyNywzNWExLDEsMCwwLDAsMS0xVjMxLjgybC4yOS0uMTIsMS41NCwxLjU1YTEsMSwwLDAsMCwxLjQyLDBBNiw2LDAsMCwwLDMzLDI5YTEsMSwwLDAsMC0xLTFIMjkuODJsLS4xMi0uMjksMS41NS0xLjU0YTEsMSwwLDAsMCwwLTEuNDJBNiw2LDAsMCwwLDI3LDIzYTEsMSwwLDAsMC0xLDF2Mi4xOGwtLjI5LjEyLTEuNTQtMS41NWExLDEsMCwwLDAtMS40MiwwQTYsNiwwLDAsMCwyMSwyOWExLDEsMCwwLDAsMSwxaDIuMThaTTI3LDI4YTEsMSwwLDEsMS0xLDFBMSwxLDAsMCwxLDI3LDI4Wm0tMiw0LjQ1Ljc0LS43NS4yOS4xMnYxQTMuODUsMy44NSwwLDAsMSwyNSwzMi40NVpNMzAuNDUsMzFsLS43NS0uNzQuMTItLjI5aDEuMDZBNC4yNCw0LjI0LDAsMCwxLDMwLjQ1LDMxWk0yOSwyNS41NWwtLjc0Ljc1TDI4LDI2LjE4VjI1LjEzQTMuODUsMy44NSwwLDAsMSwyOSwyNS41NVpNMjMuNTUsMjdsLjc1Ljc0LS4xMi4yOUgyMy4xM0EzLjg1LDMuODUsMCwwLDEsMjMuNTUsMjdaIi8+PHBhdGggZD0iTTQyLDMwaDIuMThsLjEyLjI5LTEuNTUsMS41NGExLDEsMCwwLDAsMCwxLjQyQTYsNiwwLDAsMCw0NywzNWExLDEsMCwwLDAsMS0xVjMxLjgybC4yOS0uMTIsMS41NCwxLjU1YTEsMSwwLDAsMCwxLjQyLDBBNiw2LDAsMCwwLDUzLDI5YTEsMSwwLDAsMC0xLTFINDkuODJsLS4xMi0uMjksMS41NS0xLjU0YTEsMSwwLDAsMCwwLTEuNDJBNiw2LDAsMCwwLDQ3LDIzYTEsMSwwLDAsMC0xLDF2Mi4xOGwtLjI5LjEyLTEuNTQtMS41NWExLDEsMCwwLDAtMS40MiwwQTYsNiwwLDAsMCw0MSwyOSwxLDEsMCwwLDAsNDIsMzBabTUtMmExLDEsMCwxLDEtMSwxQTEsMSwwLDAsMSw0NywyOFptLTIsNC40NS43NC0uNzUuMjkuMTJ2MUEzLjg1LDMuODUsMCwwLDEsNDUsMzIuNDVaTTUwLjQ1LDMxbC0uNzUtLjc0LjEyLS4yOWgxLjA2QTQuMjQsNC4yNCwwLDAsMSw1MC40NSwzMVpNNDksMjUuNTVsLS43NC43NUw0OCwyNi4xOFYyNS4xM0EzLjg1LDMuODUsMCwwLDEsNDksMjUuNTVaTTQzLjU1LDI3bC43NS43NC0uMTIuMjloLTFBMy44NSwzLjg1LDAsMCwxLDQzLjU1LDI3WiIvPjwvZz48L3N2Zz4=;" parent="1" vertex="1">
          <mxGeometry x="123" y="440" width="100" height="100" as="geometry" />
        </mxCell>
        <mxCell id="oXmqE3pTat4qHiT9koIU-3" value="GPU 0" style="text;html=1;strokeColor=none;fillColor=none;align=center;verticalAlign=middle;whiteSpace=wrap;rounded=0;fontStyle=1;fontSize=16;" parent="1" vertex="1">
          <mxGeometry x="143" y="519" width="60" height="30" as="geometry" />
        </mxCell>
        <mxCell id="oXmqE3pTat4qHiT9koIU-22" value="&lt;b&gt;Layer 0&lt;br&gt;&lt;/b&gt;" style="rounded=1;whiteSpace=wrap;html=1;" parent="1" vertex="1">
          <mxGeometry x="123" y="379" width="100" height="60" as="geometry" />
        </mxCell>
        <mxCell id="oXmqE3pTat4qHiT9koIU-23" value="" style="rounded=1;whiteSpace=wrap;html=1;fillColor=none;" parent="1" vertex="1">
          <mxGeometry x="283" y="367" width="120" height="180" as="geometry" />
        </mxCell>
        <mxCell id="oXmqE3pTat4qHiT9koIU-24" value="" style="shape=image;imageAspect=0;aspect=fixed;verticalLabelPosition=bottom;verticalAlign=top;image=data:image/svg+xml,PHN2ZyB4bWxucz0iaHR0cDovL3d3dy53My5vcmcvMjAwMC9zdmciIHZpZXdCb3g9IjAgMCA2NCA2NCI+PGcgZGF0YS1uYW1lPSJMYXllciAxNSIgaWQ9IkxheWVyXzE1Ij48cGF0aCBkPSJNNTksMTZIMTJWMTNhMSwxLDAsMCwwLTEtMUg1YTEsMSwwLDAsMCwwLDJoNXY0SDdhMSwxLDAsMCwwLTEsMXY4YTEsMSwwLDAsMCwxLDFoM3YySDdhMSwxLDAsMCwwLTEsMXY4YTEsMSwwLDAsMCwxLDFoM3Y3YTEsMSwwLDAsMCwyLDBWNDJoNXYzYTEsMSwwLDAsMCwxLDFoOGExLDEsMCwwLDAsMS0xVjQyaDJ2M2ExLDEsMCwwLDAsMSwxSDQ2YTEsMSwwLDAsMCwxLTFWNDJINTlhMSwxLDAsMCwwLDEtMVYxN0ExLDEsMCwwLDAsNTksMTZaTTgsMjZWMjBoMnY2Wk04LDM4VjMyaDJ2NlptNCwxVjE4aDJWNDBIMTJabTcsM2gydjJIMTlabTYsMkgyM1Y0MmgyWm02LTJoMnYySDMxWm00LDBoMnYySDM1Wm00LDBoMnYySDM5Wm02LDJINDNWNDJoMlptMTMtNEgxNlYxOEg1OFoiLz48cGF0aCBkPSJNMjcsMzhhOC45MSw4LjkxLDAsMCwwLDUuNjQtMmg4LjcyQTguOTEsOC45MSwwLDAsMCw0NywzOGE5LDksMCwwLDAsMC0xOCw4LjkxLDguOTEsMCwwLDAtNS42NCwySDMyLjY0QTguOTEsOC45MSwwLDAsMCwyNywyMGE5LDksMCwwLDAsMCwxOFpNMzguMDYsMjhIMzUuOTRhOSw5LDAsMCwwLTEuNDYtNGg1QTksOSwwLDAsMCwzOC4wNiwyOFptLTIuMTIsMmgyLjEyYTksOSwwLDAsMCwxLjQ2LDRoLTVBOSw5LDAsMCwwLDM1Ljk0LDMwWk01NCwyOWE3LDcsMCwxLDEtNy03QTcsNywwLDAsMSw1NCwyOVpNMjcsMjJhNyw3LDAsMSwxLTcsN0E3LDcsMCwwLDEsMjcsMjJaIi8+PHBhdGggZD0iTTI0LjMsMzAuMjlsLTEuNTUsMS41NGExLDEsMCwwLDAsMCwxLjQyQTYsNiwwLDAsMCwyNywzNWExLDEsMCwwLDAsMS0xVjMxLjgybC4yOS0uMTIsMS41NCwxLjU1YTEsMSwwLDAsMCwxLjQyLDBBNiw2LDAsMCwwLDMzLDI5YTEsMSwwLDAsMC0xLTFIMjkuODJsLS4xMi0uMjksMS41NS0xLjU0YTEsMSwwLDAsMCwwLTEuNDJBNiw2LDAsMCwwLDI3LDIzYTEsMSwwLDAsMC0xLDF2Mi4xOGwtLjI5LjEyLTEuNTQtMS41NWExLDEsMCwwLDAtMS40MiwwQTYsNiwwLDAsMCwyMSwyOWExLDEsMCwwLDAsMSwxaDIuMThaTTI3LDI4YTEsMSwwLDEsMS0xLDFBMSwxLDAsMCwxLDI3LDI4Wm0tMiw0LjQ1Ljc0LS43NS4yOS4xMnYxQTMuODUsMy44NSwwLDAsMSwyNSwzMi40NVpNMzAuNDUsMzFsLS43NS0uNzQuMTItLjI5aDEuMDZBNC4yNCw0LjI0LDAsMCwxLDMwLjQ1LDMxWk0yOSwyNS41NWwtLjc0Ljc1TDI4LDI2LjE4VjI1LjEzQTMuODUsMy44NSwwLDAsMSwyOSwyNS41NVpNMjMuNTUsMjdsLjc1Ljc0LS4xMi4yOUgyMy4xM0EzLjg1LDMuODUsMCwwLDEsMjMuNTUsMjdaIi8+PHBhdGggZD0iTTQyLDMwaDIuMThsLjEyLjI5LTEuNTUsMS41NGExLDEsMCwwLDAsMCwxLjQyQTYsNiwwLDAsMCw0NywzNWExLDEsMCwwLDAsMS0xVjMxLjgybC4yOS0uMTIsMS41NCwxLjU1YTEsMSwwLDAsMCwxLjQyLDBBNiw2LDAsMCwwLDUzLDI5YTEsMSwwLDAsMC0xLTFINDkuODJsLS4xMi0uMjksMS41NS0xLjU0YTEsMSwwLDAsMCwwLTEuNDJBNiw2LDAsMCwwLDQ3LDIzYTEsMSwwLDAsMC0xLDF2Mi4xOGwtLjI5LjEyLTEuNTQtMS41NWExLDEsMCwwLDAtMS40MiwwQTYsNiwwLDAsMCw0MSwyOSwxLDEsMCwwLDAsNDIsMzBabTUtMmExLDEsMCwxLDEtMSwxQTEsMSwwLDAsMSw0NywyOFptLTIsNC40NS43NC0uNzUuMjkuMTJ2MUEzLjg1LDMuODUsMCwwLDEsNDUsMzIuNDVaTTUwLjQ1LDMxbC0uNzUtLjc0LjEyLS4yOWgxLjA2QTQuMjQsNC4yNCwwLDAsMSw1MC40NSwzMVpNNDksMjUuNTVsLS43NC43NUw0OCwyNi4xOFYyNS4xM0EzLjg1LDMuODUsMCwwLDEsNDksMjUuNTVaTTQzLjU1LDI3bC43NS43NC0uMTIuMjloLTFBMy44NSwzLjg1LDAsMCwxLDQzLjU1LDI3WiIvPjwvZz48L3N2Zz4=;" parent="1" vertex="1">
          <mxGeometry x="293" y="440" width="100" height="100" as="geometry" />
        </mxCell>
        <mxCell id="oXmqE3pTat4qHiT9koIU-25" value="GPU 1" style="text;html=1;strokeColor=none;fillColor=none;align=center;verticalAlign=middle;whiteSpace=wrap;rounded=0;fontStyle=1;fontSize=16;" parent="1" vertex="1">
          <mxGeometry x="313" y="519" width="60" height="30" as="geometry" />
        </mxCell>
        <mxCell id="oXmqE3pTat4qHiT9koIU-26" value="&lt;b&gt;Layer 1&lt;br&gt;&lt;/b&gt;" style="rounded=1;whiteSpace=wrap;html=1;" parent="1" vertex="1">
          <mxGeometry x="293" y="379" width="100" height="60" as="geometry" />
        </mxCell>
        <mxCell id="oXmqE3pTat4qHiT9koIU-27" value="" style="rounded=1;whiteSpace=wrap;html=1;fillColor=none;" parent="1" vertex="1">
          <mxGeometry x="457" y="367" width="120" height="180" as="geometry" />
        </mxCell>
        <mxCell id="oXmqE3pTat4qHiT9koIU-28" value="" style="shape=image;imageAspect=0;aspect=fixed;verticalLabelPosition=bottom;verticalAlign=top;image=data:image/svg+xml,PHN2ZyB4bWxucz0iaHR0cDovL3d3dy53My5vcmcvMjAwMC9zdmciIHZpZXdCb3g9IjAgMCA2NCA2NCI+PGcgZGF0YS1uYW1lPSJMYXllciAxNSIgaWQ9IkxheWVyXzE1Ij48cGF0aCBkPSJNNTksMTZIMTJWMTNhMSwxLDAsMCwwLTEtMUg1YTEsMSwwLDAsMCwwLDJoNXY0SDdhMSwxLDAsMCwwLTEsMXY4YTEsMSwwLDAsMCwxLDFoM3YySDdhMSwxLDAsMCwwLTEsMXY4YTEsMSwwLDAsMCwxLDFoM3Y3YTEsMSwwLDAsMCwyLDBWNDJoNXYzYTEsMSwwLDAsMCwxLDFoOGExLDEsMCwwLDAsMS0xVjQyaDJ2M2ExLDEsMCwwLDAsMSwxSDQ2YTEsMSwwLDAsMCwxLTFWNDJINTlhMSwxLDAsMCwwLDEtMVYxN0ExLDEsMCwwLDAsNTksMTZaTTgsMjZWMjBoMnY2Wk04LDM4VjMyaDJ2NlptNCwxVjE4aDJWNDBIMTJabTcsM2gydjJIMTlabTYsMkgyM1Y0MmgyWm02LTJoMnYySDMxWm00LDBoMnYySDM1Wm00LDBoMnYySDM5Wm02LDJINDNWNDJoMlptMTMtNEgxNlYxOEg1OFoiLz48cGF0aCBkPSJNMjcsMzhhOC45MSw4LjkxLDAsMCwwLDUuNjQtMmg4LjcyQTguOTEsOC45MSwwLDAsMCw0NywzOGE5LDksMCwwLDAsMC0xOCw4LjkxLDguOTEsMCwwLDAtNS42NCwySDMyLjY0QTguOTEsOC45MSwwLDAsMCwyNywyMGE5LDksMCwwLDAsMCwxOFpNMzguMDYsMjhIMzUuOTRhOSw5LDAsMCwwLTEuNDYtNGg1QTksOSwwLDAsMCwzOC4wNiwyOFptLTIuMTIsMmgyLjEyYTksOSwwLDAsMCwxLjQ2LDRoLTVBOSw5LDAsMCwwLDM1Ljk0LDMwWk01NCwyOWE3LDcsMCwxLDEtNy03QTcsNywwLDAsMSw1NCwyOVpNMjcsMjJhNyw3LDAsMSwxLTcsN0E3LDcsMCwwLDEsMjcsMjJaIi8+PHBhdGggZD0iTTI0LjMsMzAuMjlsLTEuNTUsMS41NGExLDEsMCwwLDAsMCwxLjQyQTYsNiwwLDAsMCwyNywzNWExLDEsMCwwLDAsMS0xVjMxLjgybC4yOS0uMTIsMS41NCwxLjU1YTEsMSwwLDAsMCwxLjQyLDBBNiw2LDAsMCwwLDMzLDI5YTEsMSwwLDAsMC0xLTFIMjkuODJsLS4xMi0uMjksMS41NS0xLjU0YTEsMSwwLDAsMCwwLTEuNDJBNiw2LDAsMCwwLDI3LDIzYTEsMSwwLDAsMC0xLDF2Mi4xOGwtLjI5LjEyLTEuNTQtMS41NWExLDEsMCwwLDAtMS40MiwwQTYsNiwwLDAsMCwyMSwyOWExLDEsMCwwLDAsMSwxaDIuMThaTTI3LDI4YTEsMSwwLDEsMS0xLDFBMSwxLDAsMCwxLDI3LDI4Wm0tMiw0LjQ1Ljc0LS43NS4yOS4xMnYxQTMuODUsMy44NSwwLDAsMSwyNSwzMi40NVpNMzAuNDUsMzFsLS43NS0uNzQuMTItLjI5aDEuMDZBNC4yNCw0LjI0LDAsMCwxLDMwLjQ1LDMxWk0yOSwyNS41NWwtLjc0Ljc1TDI4LDI2LjE4VjI1LjEzQTMuODUsMy44NSwwLDAsMSwyOSwyNS41NVpNMjMuNTUsMjdsLjc1Ljc0LS4xMi4yOUgyMy4xM0EzLjg1LDMuODUsMCwwLDEsMjMuNTUsMjdaIi8+PHBhdGggZD0iTTQyLDMwaDIuMThsLjEyLjI5LTEuNTUsMS41NGExLDEsMCwwLDAsMCwxLjQyQTYsNiwwLDAsMCw0NywzNWExLDEsMCwwLDAsMS0xVjMxLjgybC4yOS0uMTIsMS41NCwxLjU1YTEsMSwwLDAsMCwxLjQyLDBBNiw2LDAsMCwwLDUzLDI5YTEsMSwwLDAsMC0xLTFINDkuODJsLS4xMi0uMjksMS41NS0xLjU0YTEsMSwwLDAsMCwwLTEuNDJBNiw2LDAsMCwwLDQ3LDIzYTEsMSwwLDAsMC0xLDF2Mi4xOGwtLjI5LjEyLTEuNTQtMS41NWExLDEsMCwwLDAtMS40MiwwQTYsNiwwLDAsMCw0MSwyOSwxLDEsMCwwLDAsNDIsMzBabTUtMmExLDEsMCwxLDEtMSwxQTEsMSwwLDAsMSw0NywyOFptLTIsNC40NS43NC0uNzUuMjkuMTJ2MUEzLjg1LDMuODUsMCwwLDEsNDUsMzIuNDVaTTUwLjQ1LDMxbC0uNzUtLjc0LjEyLS4yOWgxLjA2QTQuMjQsNC4yNCwwLDAsMSw1MC40NSwzMVpNNDksMjUuNTVsLS43NC43NUw0OCwyNi4xOFYyNS4xM0EzLjg1LDMuODUsMCwwLDEsNDksMjUuNTVaTTQzLjU1LDI3bC43NS43NC0uMTIuMjloLTFBMy44NSwzLjg1LDAsMCwxLDQzLjU1LDI3WiIvPjwvZz48L3N2Zz4=;" parent="1" vertex="1">
          <mxGeometry x="467" y="440" width="100" height="100" as="geometry" />
        </mxCell>
        <mxCell id="oXmqE3pTat4qHiT9koIU-29" value="GPU 2" style="text;html=1;strokeColor=none;fillColor=none;align=center;verticalAlign=middle;whiteSpace=wrap;rounded=0;fontStyle=1;fontSize=16;" parent="1" vertex="1">
          <mxGeometry x="487" y="519" width="60" height="30" as="geometry" />
        </mxCell>
        <mxCell id="oXmqE3pTat4qHiT9koIU-30" value="&lt;b&gt;Layer 2&lt;br&gt;&lt;/b&gt;" style="rounded=1;whiteSpace=wrap;html=1;" parent="1" vertex="1">
          <mxGeometry x="467" y="379" width="100" height="60" as="geometry" />
        </mxCell>
        <mxCell id="oXmqE3pTat4qHiT9koIU-31" value="" style="rounded=1;whiteSpace=wrap;html=1;fillColor=none;" parent="1" vertex="1">
          <mxGeometry x="630" y="367" width="120" height="180" as="geometry" />
        </mxCell>
        <mxCell id="oXmqE3pTat4qHiT9koIU-32" value="" style="shape=image;imageAspect=0;aspect=fixed;verticalLabelPosition=bottom;verticalAlign=top;image=data:image/svg+xml,PHN2ZyB4bWxucz0iaHR0cDovL3d3dy53My5vcmcvMjAwMC9zdmciIHZpZXdCb3g9IjAgMCA2NCA2NCI+PGcgZGF0YS1uYW1lPSJMYXllciAxNSIgaWQ9IkxheWVyXzE1Ij48cGF0aCBkPSJNNTksMTZIMTJWMTNhMSwxLDAsMCwwLTEtMUg1YTEsMSwwLDAsMCwwLDJoNXY0SDdhMSwxLDAsMCwwLTEsMXY4YTEsMSwwLDAsMCwxLDFoM3YySDdhMSwxLDAsMCwwLTEsMXY4YTEsMSwwLDAsMCwxLDFoM3Y3YTEsMSwwLDAsMCwyLDBWNDJoNXYzYTEsMSwwLDAsMCwxLDFoOGExLDEsMCwwLDAsMS0xVjQyaDJ2M2ExLDEsMCwwLDAsMSwxSDQ2YTEsMSwwLDAsMCwxLTFWNDJINTlhMSwxLDAsMCwwLDEtMVYxN0ExLDEsMCwwLDAsNTksMTZaTTgsMjZWMjBoMnY2Wk04LDM4VjMyaDJ2NlptNCwxVjE4aDJWNDBIMTJabTcsM2gydjJIMTlabTYsMkgyM1Y0MmgyWm02LTJoMnYySDMxWm00LDBoMnYySDM1Wm00LDBoMnYySDM5Wm02LDJINDNWNDJoMlptMTMtNEgxNlYxOEg1OFoiLz48cGF0aCBkPSJNMjcsMzhhOC45MSw4LjkxLDAsMCwwLDUuNjQtMmg4LjcyQTguOTEsOC45MSwwLDAsMCw0NywzOGE5LDksMCwwLDAsMC0xOCw4LjkxLDguOTEsMCwwLDAtNS42NCwySDMyLjY0QTguOTEsOC45MSwwLDAsMCwyNywyMGE5LDksMCwwLDAsMCwxOFpNMzguMDYsMjhIMzUuOTRhOSw5LDAsMCwwLTEuNDYtNGg1QTksOSwwLDAsMCwzOC4wNiwyOFptLTIuMTIsMmgyLjEyYTksOSwwLDAsMCwxLjQ2LDRoLTVBOSw5LDAsMCwwLDM1Ljk0LDMwWk01NCwyOWE3LDcsMCwxLDEtNy03QTcsNywwLDAsMSw1NCwyOVpNMjcsMjJhNyw3LDAsMSwxLTcsN0E3LDcsMCwwLDEsMjcsMjJaIi8+PHBhdGggZD0iTTI0LjMsMzAuMjlsLTEuNTUsMS41NGExLDEsMCwwLDAsMCwxLjQyQTYsNiwwLDAsMCwyNywzNWExLDEsMCwwLDAsMS0xVjMxLjgybC4yOS0uMTIsMS41NCwxLjU1YTEsMSwwLDAsMCwxLjQyLDBBNiw2LDAsMCwwLDMzLDI5YTEsMSwwLDAsMC0xLTFIMjkuODJsLS4xMi0uMjksMS41NS0xLjU0YTEsMSwwLDAsMCwwLTEuNDJBNiw2LDAsMCwwLDI3LDIzYTEsMSwwLDAsMC0xLDF2Mi4xOGwtLjI5LjEyLTEuNTQtMS41NWExLDEsMCwwLDAtMS40MiwwQTYsNiwwLDAsMCwyMSwyOWExLDEsMCwwLDAsMSwxaDIuMThaTTI3LDI4YTEsMSwwLDEsMS0xLDFBMSwxLDAsMCwxLDI3LDI4Wm0tMiw0LjQ1Ljc0LS43NS4yOS4xMnYxQTMuODUsMy44NSwwLDAsMSwyNSwzMi40NVpNMzAuNDUsMzFsLS43NS0uNzQuMTItLjI5aDEuMDZBNC4yNCw0LjI0LDAsMCwxLDMwLjQ1LDMxWk0yOSwyNS41NWwtLjc0Ljc1TDI4LDI2LjE4VjI1LjEzQTMuODUsMy44NSwwLDAsMSwyOSwyNS41NVpNMjMuNTUsMjdsLjc1Ljc0LS4xMi4yOUgyMy4xM0EzLjg1LDMuODUsMCwwLDEsMjMuNTUsMjdaIi8+PHBhdGggZD0iTTQyLDMwaDIuMThsLjEyLjI5LTEuNTUsMS41NGExLDEsMCwwLDAsMCwxLjQyQTYsNiwwLDAsMCw0NywzNWExLDEsMCwwLDAsMS0xVjMxLjgybC4yOS0uMTIsMS41NCwxLjU1YTEsMSwwLDAsMCwxLjQyLDBBNiw2LDAsMCwwLDUzLDI5YTEsMSwwLDAsMC0xLTFINDkuODJsLS4xMi0uMjksMS41NS0xLjU0YTEsMSwwLDAsMCwwLTEuNDJBNiw2LDAsMCwwLDQ3LDIzYTEsMSwwLDAsMC0xLDF2Mi4xOGwtLjI5LjEyLTEuNTQtMS41NWExLDEsMCwwLDAtMS40MiwwQTYsNiwwLDAsMCw0MSwyOSwxLDEsMCwwLDAsNDIsMzBabTUtMmExLDEsMCwxLDEtMSwxQTEsMSwwLDAsMSw0NywyOFptLTIsNC40NS43NC0uNzUuMjkuMTJ2MUEzLjg1LDMuODUsMCwwLDEsNDUsMzIuNDVaTTUwLjQ1LDMxbC0uNzUtLjc0LjEyLS4yOWgxLjA2QTQuMjQsNC4yNCwwLDAsMSw1MC40NSwzMVpNNDksMjUuNTVsLS43NC43NUw0OCwyNi4xOFYyNS4xM0EzLjg1LDMuODUsMCwwLDEsNDksMjUuNTVaTTQzLjU1LDI3bC43NS43NC0uMTIuMjloLTFBMy44NSwzLjg1LDAsMCwxLDQzLjU1LDI3WiIvPjwvZz48L3N2Zz4=;" parent="1" vertex="1">
          <mxGeometry x="640" y="440" width="100" height="100" as="geometry" />
        </mxCell>
        <mxCell id="oXmqE3pTat4qHiT9koIU-33" value="GPU 3" style="text;html=1;strokeColor=none;fillColor=none;align=center;verticalAlign=middle;whiteSpace=wrap;rounded=0;fontStyle=1;fontSize=16;" parent="1" vertex="1">
          <mxGeometry x="660" y="519" width="60" height="30" as="geometry" />
        </mxCell>
        <mxCell id="oXmqE3pTat4qHiT9koIU-34" value="&lt;b&gt;Layer 3&lt;br&gt;&lt;/b&gt;" style="rounded=1;whiteSpace=wrap;html=1;" parent="1" vertex="1">
          <mxGeometry x="640" y="379" width="100" height="60" as="geometry" />
        </mxCell>
        <mxCell id="oXmqE3pTat4qHiT9koIU-35" value="" style="endArrow=classic;html=1;rounded=0;exitX=1;exitY=0.25;exitDx=0;exitDy=0;entryX=0;entryY=0.25;entryDx=0;entryDy=0;" parent="1" source="oXmqE3pTat4qHiT9koIU-1" target="oXmqE3pTat4qHiT9koIU-23" edge="1">
          <mxGeometry width="50" height="50" relative="1" as="geometry">
            <mxPoint x="330" y="650" as="sourcePoint" />
            <mxPoint x="380" y="600" as="targetPoint" />
          </mxGeometry>
        </mxCell>
        <mxCell id="oXmqE3pTat4qHiT9koIU-36" value="" style="endArrow=classic;html=1;rounded=0;exitX=1;exitY=0.25;exitDx=0;exitDy=0;entryX=0;entryY=0.25;entryDx=0;entryDy=0;" parent="1" source="oXmqE3pTat4qHiT9koIU-23" target="oXmqE3pTat4qHiT9koIU-27" edge="1">
          <mxGeometry width="50" height="50" relative="1" as="geometry">
            <mxPoint x="243" y="422" as="sourcePoint" />
            <mxPoint x="293" y="422" as="targetPoint" />
          </mxGeometry>
        </mxCell>
        <mxCell id="oXmqE3pTat4qHiT9koIU-37" value="" style="endArrow=classic;html=1;rounded=0;exitX=1;exitY=0.25;exitDx=0;exitDy=0;entryX=0;entryY=0.25;entryDx=0;entryDy=0;" parent="1" source="oXmqE3pTat4qHiT9koIU-27" target="oXmqE3pTat4qHiT9koIU-31" edge="1">
          <mxGeometry width="50" height="50" relative="1" as="geometry">
            <mxPoint x="413" y="422" as="sourcePoint" />
            <mxPoint x="467" y="422" as="targetPoint" />
          </mxGeometry>
        </mxCell>
        <mxCell id="oXmqE3pTat4qHiT9koIU-38" value="&lt;b&gt;FWD&lt;/b&gt;" style="text;html=1;strokeColor=none;fillColor=none;align=center;verticalAlign=middle;whiteSpace=wrap;rounded=0;" parent="1" vertex="1">
          <mxGeometry x="228" y="379" width="60" height="30" as="geometry" />
        </mxCell>
        <mxCell id="oXmqE3pTat4qHiT9koIU-39" value="" style="endArrow=classic;html=1;rounded=0;exitX=0;exitY=0.75;exitDx=0;exitDy=0;entryX=1;entryY=0.75;entryDx=0;entryDy=0;" parent="1" source="oXmqE3pTat4qHiT9koIU-23" target="oXmqE3pTat4qHiT9koIU-1" edge="1">
          <mxGeometry width="50" height="50" relative="1" as="geometry">
            <mxPoint x="250" y="590" as="sourcePoint" />
            <mxPoint x="300" y="540" as="targetPoint" />
          </mxGeometry>
        </mxCell>
        <mxCell id="oXmqE3pTat4qHiT9koIU-40" value="" style="endArrow=classic;html=1;rounded=0;exitX=0;exitY=0.75;exitDx=0;exitDy=0;entryX=1;entryY=0.75;entryDx=0;entryDy=0;" parent="1" source="oXmqE3pTat4qHiT9koIU-27" target="oXmqE3pTat4qHiT9koIU-23" edge="1">
          <mxGeometry width="50" height="50" relative="1" as="geometry">
            <mxPoint x="450" y="500" as="sourcePoint" />
            <mxPoint x="410" y="500" as="targetPoint" />
          </mxGeometry>
        </mxCell>
        <mxCell id="oXmqE3pTat4qHiT9koIU-41" value="" style="endArrow=classic;html=1;rounded=0;exitX=0;exitY=0.75;exitDx=0;exitDy=0;entryX=1;entryY=0.75;entryDx=0;entryDy=0;" parent="1" source="oXmqE3pTat4qHiT9koIU-31" target="oXmqE3pTat4qHiT9koIU-27" edge="1">
          <mxGeometry width="50" height="50" relative="1" as="geometry">
            <mxPoint x="467" y="512" as="sourcePoint" />
            <mxPoint x="413" y="512" as="targetPoint" />
          </mxGeometry>
        </mxCell>
        <mxCell id="oXmqE3pTat4qHiT9koIU-42" value="&lt;b&gt;BWD&lt;/b&gt;" style="text;html=1;strokeColor=none;fillColor=none;align=center;verticalAlign=middle;whiteSpace=wrap;rounded=0;" parent="1" vertex="1">
          <mxGeometry x="228" y="500" width="60" height="30" as="geometry" />
        </mxCell>
      </root>
    </mxGraphModel>
  </diagram>
</mxfile>
